# Blender 4.1.1
# www.blender.org
mtllib Player.mtl
o Cube
v -0.716624 2.918694 0.682698
v -0.573652 1.028739 1.142738
v -0.458364 0.291712 0.680622
v -0.716624 4.284090 0.682698
v -0.573652 3.028738 1.142738
v -0.716624 2.918694 -0.682698
v -0.573652 1.028739 -1.142738
v -0.458364 0.291712 -0.680622
v -0.716624 4.284090 -0.682698
v -0.573652 3.028738 -1.142738
v 0.716624 2.918694 0.682698
v 0.573652 1.028739 1.142738
v 0.458364 0.291712 0.680622
v 0.716624 4.284090 0.682698
v 0.573652 3.028738 1.142738
v 0.716624 2.918694 -0.682698
v 0.573652 1.028739 -1.142738
v 0.458364 0.291712 -0.680622
v 0.716624 4.284090 -0.682698
v 0.573652 3.028738 -1.142738
v -0.573652 3.028738 -0.682698
v -0.573652 2.918694 -0.682698
v 0.573652 3.028738 -0.682698
v 0.573652 2.918694 -0.682698
v -0.573652 2.918694 0.682698
v -0.573652 3.028738 0.682698
v 0.573652 3.028738 0.682698
v 0.573652 2.918694 0.682698
v 0.458364 1.028739 0.680622
v 0.458364 1.028739 -0.680622
v -0.458364 1.028739 0.680622
v -0.458364 1.028739 -0.680622
vn -1.0000 -0.0000 -0.0000
vn -0.0000 -0.0000 -1.0000
vn 1.0000 -0.0000 -0.0000
vn -0.0000 -0.0000 1.0000
vn -0.0000 -1.0000 -0.0000
vn -0.0000 1.0000 -0.0000
vt 0.375000 0.000000
vt 0.625000 0.000000
vt 0.625000 0.250000
vt 0.375000 0.250000
vt 0.625000 0.500000
vt 0.375000 0.500000
vt 0.375000 0.475062
vt 0.395149 0.475062
vt 0.395149 0.274938
vt 0.375000 0.274938
vt 0.625000 0.750000
vt 0.375000 0.750000
vt 0.625000 1.000000
vt 0.375000 1.000000
vt 0.375000 0.975062
vt 0.395149 0.975062
vt 0.395149 0.774938
vt 0.375000 0.774938
vt 0.350062 0.500000
vt 0.350062 0.750000
vt 0.125000 0.750000
vt 0.125000 0.500000
vt 0.149938 0.500000
vt 0.149938 0.750000
vt 0.875000 0.500000
vt 0.875000 0.750000
vt 0.625000 0.050322
vt 0.611244 0.050322
vt 0.611244 0.199678
vt 0.625000 0.199678
vt 0.625000 0.550322
vt 0.611244 0.550322
vt 0.611244 0.699678
vt 0.625000 0.699678
vt 0.150121 0.699451
vt 0.150121 0.550549
vt 0.349879 0.699451
vt 0.349879 0.550549
vt 0.875000 0.699678
vt 0.875000 0.550322
vt 0.555282 0.000000
vt 0.555282 0.250000
vt 0.555282 0.500000
vt 0.555282 0.750000
vt 0.555282 1.000000
s 0
f 1/1/1 4/2/1 9/3/1 6/4/1
f 6/4/2 9/3/2 19/5/2 16/6/2 24/7/2 23/8/2 21/9/2 22/10/2
f 16/6/3 19/5/3 14/11/3 11/12/3
f 11/12/4 14/11/4 4/13/4 1/14/4 25/15/4 26/16/4 27/17/4 28/18/4
f 24/19/5 16/6/5 11/12/5 28/20/5
f 1/21/5 6/22/5 22/23/5 25/24/5
f 19/5/6 9/25/6 4/26/6 14/11/6
f 10/3/1 7/4/1 2/1/1 5/2/1 26/27/1 25/28/1 22/29/1 21/30/1
f 7/4/2 10/3/2 20/5/2 17/6/2
f 15/11/3 12/12/3 17/6/3 20/5/3 23/31/3 24/32/3 28/33/3 27/34/3
f 12/12/4 15/11/4 5/13/4 2/14/4
f 31/35/5 2/21/5 7/22/5 32/36/5
f 32/36/5 7/22/5 17/6/5 12/12/5 2/21/5 31/35/5 29/37/5 30/38/5
f 26/39/6 5/26/6 15/11/6 27/34/6
f 23/31/6 20/5/6 10/25/6 21/40/6
f 8/4/1 3/1/1 31/41/1 32/42/1
f 18/6/2 8/4/2 32/42/2 30/43/2
f 29/44/3 13/12/3 18/6/3 30/43/3
f 31/45/4 3/14/4 13/12/4 29/44/4
f 8/22/5 18/6/5 13/12/5 3/21/5
