# Blender 4.1.1
# www.blender.org
mtllib RuinedWall.mtl
o Cube
v -1.966655 0.062665 0.426085
v -1.966655 2.062665 0.426085
v -1.966655 0.062665 -0.426085
v -1.966655 2.062665 -0.426085
v 1.966655 0.062665 0.426085
v 1.966655 2.062665 0.426085
v 1.966655 0.062665 -0.426085
v 1.966655 2.062665 -0.426085
v 1.179993 0.062665 -0.426085
v 0.393331 0.062665 -0.426085
v -0.393331 0.062665 -0.426085
v -1.179993 0.062665 -0.426085
v -1.179993 2.062665 -0.426085
v -0.393331 2.062665 -0.426085
v 0.393331 2.062665 -0.426085
v 1.179993 2.062665 -0.426085
v -1.179993 0.062665 0.426085
v -0.393331 0.062665 0.426085
v 0.393331 0.062665 0.426085
v 1.179993 0.062665 0.426085
v 1.179993 2.062665 0.426085
v 0.393331 2.062665 0.426085
v -0.393331 2.062665 0.426085
v -1.179993 2.062665 0.426085
v -1.966655 0.062665 3.959028
v -1.966655 2.062665 3.959028
v -1.179993 2.062665 3.959028
v -1.179993 0.062665 3.959028
v 1.179993 2.457309 -0.426085
v 1.966655 2.457309 -0.426085
v 1.966655 2.457309 0.426085
v 1.179993 2.457309 0.426085
v -0.393331 2.433845 -0.426085
v 0.393331 2.433845 -0.426085
v 0.393331 2.433845 0.426085
v -0.393331 2.433845 0.426085
v -1.179993 2.789031 -0.426085
v -0.393331 2.789031 -0.426085
v -0.393331 2.789031 0.426085
v -1.179993 2.789031 0.426085
v -1.179993 2.062665 3.180640
v -1.179993 0.062665 3.180640
v -1.966655 2.062665 3.180640
v -1.966655 0.062665 3.180640
v -1.179993 3.809850 0.426085
v -1.966655 3.809850 0.426085
v -1.179993 3.809850 3.180640
v -1.966655 3.809850 3.180640
v -1.179993 2.490146 3.959028
v -1.966655 2.490146 3.959028
v -1.179993 2.490146 3.180640
v -1.966655 2.490146 3.180640
v -1.966655 2.257047 0.426085
v -1.966655 2.257047 -0.426085
v -1.179993 2.257047 0.426085
v -1.179993 2.257047 -0.426085
v -1.179993 2.796017 1.083235
v -1.179993 2.796017 2.511289
v -1.179993 3.406954 2.511289
v -1.179993 3.406954 1.083235
v -1.966655 2.796017 2.511289
v -1.966655 3.406954 2.511289
v -1.966655 2.796017 1.083235
v -1.966655 3.406954 1.083235
v -1.286666 3.809850 0.799607
v -1.859982 3.809850 0.799607
v -1.859982 3.809850 2.807118
v -1.286666 3.809850 2.807118
v -1.286666 4.276489 0.799607
v -1.859982 4.276489 0.799607
v -1.859982 4.276489 2.807118
v -1.286666 4.276489 2.807118
v -1.859982 4.276489 1.822931
v -1.286666 4.276489 1.822959
v -1.859982 4.524744 1.822931
v -1.859982 4.524744 2.807118
v -1.286666 4.524744 2.807118
v -1.286666 4.524744 1.822959
vn -1.0000 -0.0000 -0.0000
vn -0.0000 -0.0000 -1.0000
vn 1.0000 -0.0000 -0.0000
vn -0.0000 -1.0000 -0.0000
vn -0.0000 1.0000 -0.0000
vn -0.0000 -0.0000 1.0000
vt 0.375000 0.000000
vt 0.625000 0.000000
vt 0.625000 0.250000
vt 0.375000 0.250000
vt 0.375000 0.450000
vt 0.625000 0.450000
vt 0.625000 0.500000
vt 0.375000 0.500000
vt 0.625000 0.750000
vt 0.375000 0.750000
vt 0.375000 0.950000
vt 0.625000 0.950000
vt 0.625000 0.950000
vt 0.325000 0.500000
vt 0.325000 0.750000
vt 0.675000 0.500000
vt 0.725000 0.500000
vt 0.725000 0.750000
vt 0.675000 0.750000
vt 0.775000 0.500000
vt 0.775000 0.750000
vt 0.125000 0.500000
vt 0.175000 0.500000
vt 0.175000 0.750000
vt 0.125000 0.750000
vt 0.225000 0.500000
vt 0.225000 0.750000
vt 0.275000 0.500000
vt 0.275000 0.750000
vt 0.625000 0.800000
vt 0.375000 0.800000
vt 0.625000 0.850000
vt 0.375000 0.850000
vt 0.625000 0.900000
vt 0.375000 0.900000
vt 0.625000 0.300000
vt 0.375000 0.300000
vt 0.625000 0.350000
vt 0.375000 0.350000
vt 0.625000 0.400000
vt 0.375000 0.400000
vt 0.625000 1.000000
vt 0.375000 1.000000
vt 0.825000 0.500000
vt 0.825000 0.750000
vt 0.625000 0.950000
vt 0.875000 0.750000
vt 0.625000 0.000000
vt 0.875000 0.500000
vt 0.375000 0.297649
vt 0.375000 0.433892
vt 0.625000 0.433892
vt 0.625000 0.297649
vt 0.625000 0.952351
vt 0.625000 0.816108
vt 0.375000 0.816108
vt 0.375000 0.952351
vt 0.308892 0.750000
vt 0.308892 0.500000
vt 0.172649 0.500000
vt 0.172649 0.750000
vt 0.827351 0.500000
vt 0.691108 0.500000
vt 0.691108 0.750000
vt 0.827351 0.750000
s 0
f 1/1/1 2/2/1 4/3/1 3/4/1
f 9/5/2 16/6/2 8/7/2 7/8/2
f 7/8/3 8/7/3 6/9/3 5/10/3
f 42/11/3 41/12/3 27/13/3 28/11/3
f 9/14/4 7/8/4 5/10/4 20/15/4
f 4/3/1 2/2/1 53/2/1 54/3/1
f 6/9/3 8/7/3 30/7/3 31/9/3
f 16/16/5 15/17/5 22/18/5 21/19/5
f 14/20/1 23/21/1 36/21/1 33/20/1
f 23/21/3 14/20/3 38/20/3 39/21/3
f 3/22/4 12/23/4 17/24/4 1/25/4
f 12/23/4 11/26/4 18/27/4 17/24/4
f 11/26/4 10/28/4 19/29/4 18/27/4
f 10/28/4 9/14/4 20/15/4 19/29/4
f 5/10/6 6/9/6 21/30/6 20/31/6
f 20/31/6 21/30/6 22/32/6 19/33/6
f 19/33/6 22/32/6 23/34/6 18/35/6
f 18/35/6 23/34/6 24/13/6 17/11/6
f 3/4/2 4/3/2 13/36/2 12/37/2
f 12/37/2 13/36/2 14/38/2 11/39/2
f 11/39/2 14/38/2 15/40/2 10/41/2
f 10/41/2 15/40/2 16/6/2 9/5/2
f 28/11/6 27/13/6 26/42/6 25/43/6
f 43/2/1 26/2/1 50/2/1 52/2/1
f 44/25/4 42/24/4 28/24/4 25/25/4
f 43/2/1 44/1/1 25/1/1 26/2/1
f 30/7/5 29/16/5 32/19/5 31/9/5
f 16/16/1 21/19/1 32/19/1 29/16/1
f 21/30/6 6/9/6 31/9/6 32/30/6
f 8/7/2 16/6/2 29/6/2 30/7/2
f 34/17/5 33/20/5 36/21/5 35/18/5
f 23/34/6 22/32/6 35/32/6 36/34/6
f 15/40/2 14/38/2 33/38/2 34/40/2
f 22/18/3 15/17/3 34/17/3 35/18/3
f 38/20/5 37/44/5 40/45/5 39/21/5
f 14/38/2 13/36/2 37/36/2 38/38/2
f 13/44/1 24/45/1 40/45/1 37/44/1
f 24/13/6 23/34/6 39/34/6 40/13/6
f 2/2/1 1/1/1 44/1/1 43/2/1
f 1/25/4 17/24/4 42/24/4 44/25/4
f 59/12/3 47/12/3 41/12/3 24/13/3 45/13/3 60/13/3 57/46/3 58/12/3
f 60/13/3 45/13/3 47/12/3 59/12/3
f 17/11/3 24/13/3 41/12/3 42/11/3
f 46/2/5 48/2/5 67/2/5 66/2/5
f 24/45/2 2/47/2 46/47/2 45/45/2
f 43/47/6 41/45/6 47/45/6 48/47/6
f 62/2/1 48/2/1 46/2/1 64/2/1
f 46/2/1 2/2/1 43/2/1 48/2/1 62/2/1 61/48/1 63/2/1 64/2/1
f 51/45/5 52/47/5 50/47/5 49/45/5
f 27/13/3 41/12/3 51/12/3 49/13/3
f 41/45/2 43/47/2 52/47/2 51/45/2
f 26/42/6 27/13/6 49/13/6 50/42/6
f 56/44/5 54/49/5 53/47/5 55/45/5
f 2/47/6 24/45/6 55/45/6 53/47/6
f 24/45/3 13/44/3 56/44/3 55/45/3
f 13/36/2 4/3/2 54/3/2 56/36/2
f 66/2/1 67/2/1 71/2/1 73/2/1 70/2/1
f 48/47/5 47/45/5 68/45/5 67/47/5
f 45/45/5 46/47/5 66/47/5 65/45/5
f 47/12/5 45/13/5 65/13/5 68/12/5
f 69/45/5 70/47/5 73/47/5 74/45/5
f 67/47/6 68/45/6 72/45/6 71/47/6
f 65/45/2 66/47/2 70/47/2 69/45/2
f 68/12/3 65/13/3 69/13/3 74/12/3 72/12/3
f 71/47/6 72/45/6 77/45/6 76/47/6
f 78/45/5 75/47/5 76/47/5 77/45/5
f 72/12/3 74/12/3 78/12/3 77/12/3
f 73/2/1 71/2/1 76/2/1 75/2/1
f 74/45/2 73/47/2 75/47/2 78/45/2
f 63/50/6 57/51/6 60/52/6 64/53/6
f 62/54/2 59/55/2 58/56/2 61/57/2
f 58/58/5 57/59/5 63/60/5 61/61/5
f 64/62/4 60/63/4 59/64/4 62/65/4
